<?xml version="1.0" standalone="no" ?>
<?xml-stylesheet href="default.css" type="text/css"?>

<svg xmlns="http://www.w3.org/2000/svg" 
		 version="1.1"
		 id="test"
		 viewBox="0 0 1110 964" preserveAspectRatio="xMidYMid" >

<polygon id="ocean" transform="translate(555.0,481.3) rotate(30)"
points=" 476.3,275.0 0.0,550.0 -476.3,275.0 -476.3,-275.0 0.0,-550.0 476.3,-275.0 "/>
<g id="tiles">
<g class="tile" transform="translate(381.8, 781.3)">
<polygon class="quarry"
points=" 86.6,50.0 0.0,100.0 -86.6,50.0 -86.6,-50.0 0.0,-100.0 86.6,-50.0 "/>
<g id="A" class="token">
<circle cx="0" cy="0" r="30" />
<text x="0" y="-5" >5</text>
<text x="0" y="5" >....</text>
</g>
</g>
<g class="tile" transform="translate(555.0, 781.3)">
<polygon class="fields"
points=" 86.6,50.0 0.0,100.0 -86.6,50.0 -86.6,-50.0 0.0,-100.0 86.6,-50.0 "/>
<g id="B" class="token">
<circle cx="0" cy="0" r="30" />
<text x="0" y="-5" >2</text>
<text x="0" y="5" >.</text>
</g>
</g>
<g class="tile" transform="translate(728.2, 781.3)">
<polygon class="forest"
points=" 86.6,50.0 0.0,100.0 -86.6,50.0 -86.6,-50.0 0.0,-100.0 86.6,-50.0 "/>
<g id="C" class="token">
<circle cx="0" cy="0" r="30" />
<text x="0" y="-5" style="stroke:maroon" >6</text>
<text x="0" y="5" style="stroke:maroon" >.....</text>
</g>
</g>
<g class="tile" transform="translate(814.8, 631.3)">
<polygon class="quarry"
points=" 86.6,50.0 0.0,100.0 -86.6,50.0 -86.6,-50.0 0.0,-100.0 86.6,-50.0 "/>
<g id="D" class="token">
<circle cx="0" cy="0" r="30" />
<text x="0" y="-5" >3</text>
<text x="0" y="5" >..</text>
</g>
</g>
<g class="tile" transform="translate(901.4, 481.3)">
<polygon class="fields"
points=" 86.6,50.0 0.0,100.0 -86.6,50.0 -86.6,-50.0 0.0,-100.0 86.6,-50.0 "/>
<g id="E" class="token">
<circle cx="0" cy="0" r="30" />
<text x="0" y="-5" style="stroke:maroon" >8</text>
<text x="0" y="5" style="stroke:maroon" >.....</text>
</g>
</g>
<g class="tile" transform="translate(814.8, 331.3)">
<polygon class="pasture"
points=" 86.6,50.0 0.0,100.0 -86.6,50.0 -86.6,-50.0 0.0,-100.0 86.6,-50.0 "/>
<g id="F" class="token">
<circle cx="0" cy="0" r="30" />
<text x="0" y="-5" >10</text>
<text x="0" y="5" >...</text>
</g>
</g>
<g class="tile" transform="translate(728.2, 181.3)">
<polygon class="fields"
points=" 86.6,50.0 0.0,100.0 -86.6,50.0 -86.6,-50.0 0.0,-100.0 86.6,-50.0 "/>
<g id="G" class="token">
<circle cx="0" cy="0" r="30" />
<text x="0" y="-5" >9</text>
<text x="0" y="5" >....</text>
</g>
</g>
<g class="tile" transform="translate(555.0, 181.3)">
<polygon class="pasture"
points=" 86.6,50.0 0.0,100.0 -86.6,50.0 -86.6,-50.0 0.0,-100.0 86.6,-50.0 "/>
<g id="H" class="token">
<circle cx="0" cy="0" r="30" />
<text x="0" y="-5" >12</text>
<text x="0" y="5" >.</text>
</g>
</g>
<g class="tile" transform="translate(381.8, 181.3)">
<polygon class="forest"
points=" 86.6,50.0 0.0,100.0 -86.6,50.0 -86.6,-50.0 0.0,-100.0 86.6,-50.0 "/>
<g id="I" class="token">
<circle cx="0" cy="0" r="30" />
<text x="0" y="-5" >11</text>
<text x="0" y="5" >..</text>
</g>
</g>
<g class="tile" transform="translate(295.2, 331.3)">
<polygon class="hills"
points=" 86.6,50.0 0.0,100.0 -86.6,50.0 -86.6,-50.0 0.0,-100.0 86.6,-50.0 "/>
<g id="J" class="token">
<circle cx="0" cy="0" r="30" />
<text x="0" y="-5" >4</text>
<text x="0" y="5" >...</text>
</g>
</g>
<g class="tile" transform="translate(208.6, 481.3)">
<polygon class="desert"
points=" 86.6,50.0 0.0,100.0 -86.6,50.0 -86.6,-50.0 0.0,-100.0 86.6,-50.0 "/>
</g>
<g class="tile" transform="translate(295.2, 631.3)">
<polygon class="hills"
points=" 86.6,50.0 0.0,100.0 -86.6,50.0 -86.6,-50.0 0.0,-100.0 86.6,-50.0 "/>
<g id="K" class="token">
<circle cx="0" cy="0" r="30" />
<text x="0" y="-5" style="stroke:maroon" >8</text>
<text x="0" y="5" style="stroke:maroon" >.....</text>
</g>
</g>
<g class="tile" transform="translate(468.4, 631.3)">
<polygon class="pasture"
points=" 86.6,50.0 0.0,100.0 -86.6,50.0 -86.6,-50.0 0.0,-100.0 86.6,-50.0 "/>
<g id="L" class="token">
<circle cx="0" cy="0" r="30" />
<text x="0" y="-5" >10</text>
<text x="0" y="5" >...</text>
</g>
</g>
<g class="tile" transform="translate(641.6, 631.3)">
<polygon class="pasture"
points=" 86.6,50.0 0.0,100.0 -86.6,50.0 -86.6,-50.0 0.0,-100.0 86.6,-50.0 "/>
<g id="M" class="token">
<circle cx="0" cy="0" r="30" />
<text x="0" y="-5" >9</text>
<text x="0" y="5" >....</text>
</g>
</g>
<g class="tile" transform="translate(728.2, 481.3)">
<polygon class="forest"
points=" 86.6,50.0 0.0,100.0 -86.6,50.0 -86.6,-50.0 0.0,-100.0 86.6,-50.0 "/>
<g id="N" class="token">
<circle cx="0" cy="0" r="30" />
<text x="0" y="-5" >4</text>
<text x="0" y="5" >...</text>
</g>
</g>
<g class="tile" transform="translate(641.6, 331.3)">
<polygon class="hills"
points=" 86.6,50.0 0.0,100.0 -86.6,50.0 -86.6,-50.0 0.0,-100.0 86.6,-50.0 "/>
<g id="O" class="token">
<circle cx="0" cy="0" r="30" />
<text x="0" y="-5" >5</text>
<text x="0" y="5" >....</text>
</g>
</g>
<g class="tile" transform="translate(468.4, 331.3)">
<polygon class="quarry"
points=" 86.6,50.0 0.0,100.0 -86.6,50.0 -86.6,-50.0 0.0,-100.0 86.6,-50.0 "/>
<g id="P" class="token">
<circle cx="0" cy="0" r="30" />
<text x="0" y="-5" style="stroke:maroon" >6</text>
<text x="0" y="5" style="stroke:maroon" >.....</text>
</g>
</g>
<g class="tile" transform="translate(381.8, 481.3)">
<polygon class="forest"
points=" 86.6,50.0 0.0,100.0 -86.6,50.0 -86.6,-50.0 0.0,-100.0 86.6,-50.0 "/>
<g id="Q" class="token">
<circle cx="0" cy="0" r="30" />
<text x="0" y="-5" >3</text>
<text x="0" y="5" >..</text>
</g>
</g>
<g class="tile" transform="translate(555.0, 481.3)">
<polygon class="fields"
points=" 86.6,50.0 0.0,100.0 -86.6,50.0 -86.6,-50.0 0.0,-100.0 86.6,-50.0 "/>
<g id="R" class="token">
<circle cx="0" cy="0" r="30" />
<text x="0" y="-5" >11</text>
<text x="0" y="5" >..</text>
</g>
</g>
</g>
<g id="buildings">
<polygon id="0" class="unowned"
points="-15,15 -15,-5 0,-15 15,-5 15,15"
transform="translate(728.2,581.3)" />
<polygon id="1" class="unowned"
points="-15,15 -15,-5 0,-15 15,-5 15,15"
transform="translate(555.0,581.3)" />
<polygon id="2" class="unowned"
points="-15,15 -15,-5 0,-15 15,-5 15,15"
transform="translate(381.8,281.3)" />
<polygon id="3" class="unowned"
points="-15,15 -15,-5 0,-15 15,-5 15,15"
transform="translate(641.6,231.3)" />
<polygon id="4" class="unowned"
points="-15,15 -15,-5 0,-15 15,-5 15,15"
transform="translate(901.4,581.3)" />
<polygon id="5" class="unowned"
points="-15,15 -15,-5 0,-15 15,-5 15,15"
transform="translate(295.2,431.3)" />
<polygon id="6" class="unowned"
points="-15,15 -15,-5 0,-15 15,-5 15,15"
transform="translate(814.8,731.3)" />
<polygon id="7" class="unowned"
points="-15,15 -15,-5 0,-15 15,-5 15,15"
transform="translate(814.8,431.3)" />
<polygon id="8" class="unowned"
points="-15,15 -15,-5 0,-15 15,-5 15,15"
transform="translate(901.4,681.3)" />
<polygon id="9" class="unowned"
points="-15,15 -15,-5 0,-15 15,-5 15,15"
transform="translate(728.2,881.3)" />
<polygon id="10" class="unowned"
points="-15,15 -15,-5 0,-15 15,-5 15,15"
transform="translate(641.6,431.3)" />
<polygon id="11" class="unowned"
points="-15,15 -15,-5 0,-15 15,-5 15,15"
transform="translate(814.8,231.3)" />
<polygon id="12" class="unowned"
points="-15,15 -15,-5 0,-15 15,-5 15,15"
transform="translate(555.0,881.3)" />
<polygon id="13" class="unowned"
points="-15,15 -15,-5 0,-15 15,-5 15,15"
transform="translate(555.0,281.3)" />
<polygon id="14" class="unowned"
points="-15,15 -15,-5 0,-15 15,-5 15,15"
transform="translate(381.8,381.3)" />
<polygon id="15" class="unowned"
points="-15,15 -15,-5 0,-15 15,-5 15,15"
transform="translate(555.0,681.3)" />
<polygon id="16" class="unowned"
points="-15,15 -15,-5 0,-15 15,-5 15,15"
transform="translate(641.6,131.3)" />
<polygon id="17" class="unowned"
points="-15,15 -15,-5 0,-15 15,-5 15,15"
transform="translate(295.2,531.3)" />
<polygon id="18" class="unowned"
points="-15,15 -15,-5 0,-15 15,-5 15,15"
transform="translate(208.6,281.3)" />
<polygon id="19" class="unowned"
points="-15,15 -15,-5 0,-15 15,-5 15,15"
transform="translate(814.8,531.3)" />
<polygon id="20" class="unowned"
points="-15,15 -15,-5 0,-15 15,-5 15,15"
transform="translate(468.4,531.3)" />
<polygon id="21" class="unowned"
points="-15,15 -15,-5 0,-15 15,-5 15,15"
transform="translate(555.0,381.3)" />
<polygon id="22" class="unowned"
points="-15,15 -15,-5 0,-15 15,-5 15,15"
transform="translate(295.2,231.3)" />
<polygon id="23" class="unowned"
points="-15,15 -15,-5 0,-15 15,-5 15,15"
transform="translate(381.8,581.3)" />
<polygon id="24" class="unowned"
points="-15,15 -15,-5 0,-15 15,-5 15,15"
transform="translate(988.0,531.3)" />
<polygon id="25" class="unowned"
points="-15,15 -15,-5 0,-15 15,-5 15,15"
transform="translate(988.0,431.3)" />
<polygon id="26" class="unowned"
points="-15,15 -15,-5 0,-15 15,-5 15,15"
transform="translate(728.2,281.3)" />
<polygon id="27" class="unowned"
points="-15,15 -15,-5 0,-15 15,-5 15,15"
transform="translate(468.4,431.3)" />
<polygon id="28" class="unowned"
points="-15,15 -15,-5 0,-15 15,-5 15,15"
transform="translate(208.6,581.3)" />
<polygon id="29" class="unowned"
points="-15,15 -15,-5 0,-15 15,-5 15,15"
transform="translate(468.4,231.3)" />
<polygon id="30" class="unowned"
points="-15,15 -15,-5 0,-15 15,-5 15,15"
transform="translate(295.2,831.3)" />
<polygon id="31" class="unowned"
points="-15,15 -15,-5 0,-15 15,-5 15,15"
transform="translate(468.4,731.3)" />
<polygon id="32" class="unowned"
points="-15,15 -15,-5 0,-15 15,-5 15,15"
transform="translate(814.8,831.3)" />
<polygon id="33" class="unowned"
points="-15,15 -15,-5 0,-15 15,-5 15,15"
transform="translate(901.4,381.3)" />
<polygon id="34" class="unowned"
points="-15,15 -15,-5 0,-15 15,-5 15,15"
transform="translate(468.4,831.3)" />
<polygon id="35" class="unowned"
points="-15,15 -15,-5 0,-15 15,-5 15,15"
transform="translate(381.8,681.3)" />
<polygon id="36" class="unowned"
points="-15,15 -15,-5 0,-15 15,-5 15,15"
transform="translate(641.6,731.3)" />
<polygon id="37" class="unowned"
points="-15,15 -15,-5 0,-15 15,-5 15,15"
transform="translate(381.8,81.3)" />
<polygon id="38" class="unowned"
points="-15,15 -15,-5 0,-15 15,-5 15,15"
transform="translate(901.4,281.3)" />
<polygon id="39" class="unowned"
points="-15,15 -15,-5 0,-15 15,-5 15,15"
transform="translate(208.6,681.3)" />
<polygon id="40" class="unowned"
points="-15,15 -15,-5 0,-15 15,-5 15,15"
transform="translate(641.6,831.3)" />
<polygon id="41" class="unowned"
points="-15,15 -15,-5 0,-15 15,-5 15,15"
transform="translate(468.4,131.3)" />
<polygon id="42" class="unowned"
points="-15,15 -15,-5 0,-15 15,-5 15,15"
transform="translate(728.2,381.3)" />
<polygon id="43" class="unowned"
points="-15,15 -15,-5 0,-15 15,-5 15,15"
transform="translate(208.6,381.3)" />
<polygon id="44" class="unowned"
points="-15,15 -15,-5 0,-15 15,-5 15,15"
transform="translate(814.8,131.3)" />
<polygon id="45" class="unowned"
points="-15,15 -15,-5 0,-15 15,-5 15,15"
transform="translate(555.0,81.3)" />
<polygon id="46" class="unowned"
points="-15,15 -15,-5 0,-15 15,-5 15,15"
transform="translate(295.2,131.3)" />
<polygon id="47" class="unowned"
points="-15,15 -15,-5 0,-15 15,-5 15,15"
transform="translate(728.2,681.3)" />
<polygon id="48" class="unowned"
points="-15,15 -15,-5 0,-15 15,-5 15,15"
transform="translate(295.2,731.3)" />
<polygon id="49" class="unowned"
points="-15,15 -15,-5 0,-15 15,-5 15,15"
transform="translate(381.8,881.3)" />
<polygon id="50" class="unowned"
points="-15,15 -15,-5 0,-15 15,-5 15,15"
transform="translate(641.6,531.3)" />
<polygon id="51" class="unowned"
points="-15,15 -15,-5 0,-15 15,-5 15,15"
transform="translate(728.2,81.3)" />
<polygon id="52" class="unowned"
points="-15,15 -15,-5 0,-15 15,-5 15,15"
transform="translate(122.0,431.3)" />
<polygon id="53" class="unowned"
points="-15,15 -15,-5 0,-15 15,-5 15,15"
transform="translate(122.0,531.3)" />

	<polygon class="p2"
		points="-15,-5 -15,-15 0,-25 15,-15 15,-5 30,-5 30,15 -30,15 -30,-5"
		transform="translate(814.8,431.3)" />
	<polygon class="p3"
		points="-30,-5 -30,-15 -15,-25 0,-15 0,-5 30,-5 30,15 -30,15 -30,-5"
		transform="translate(641.6,431.3)" />
	</g>

	<circle cx="208.6" cy="481.3" r="5" />
	<g id="wood-port" class="harbor" 
		transform="translate(208.6, 481.3)">
		<g>
			<rect x="100" y="-15" width="40" height="30" rx="3" />
			<text x="120">2:1</text>
		</g>
	</g>
</svg>