<?xml version="1.0" standalone="no" ?>
<?xml-stylesheet href="default.css" type="text/css"?>

<svg xmlns="http://www.w3.org/2000/svg" 
	version="1.1"
	id="test"
	width="1010"
    height="900">
	<polygon id="ocean" transform="translate(5 5)"
		points="0,428.7 247.5,857.4 742.5,857.4 990,428.7 742.5,0 247.5,0" />
	<g id="resources" transform="translate(5 5)">
		<polygon id="A" class="fields"
		points="412.5,762.1 330.0,809.7 247.5,762.1 247.5,666.8 330.0,619.2 412.5,666.8" />
		<polygon id="B" class="quarry"
		points="577.5,762.1 495.0,809.7 412.5,762.1 412.5,666.8 495.0,619.2 577.5,666.8" />
		<polygon id="C" class="fields"
		points="742.5,762.1 660.0,809.7 577.5,762.1 577.5,666.8 660.0,619.2 742.5,666.8" />
		<polygon id="D" class="hills"
		points="825.0,619.2 742.5,666.8 660.0,619.2 660.0,523.9 742.5,476.3 825.0,523.9" />
		<polygon id="E" class="pasture"
		points="907.5,476.3 825.0,523.9 742.5,476.3 742.5,381.1 825.0,333.4 907.5,381.1" />
		<polygon id="F" class="hills"
		points="825.0,333.4 742.5,381.1 660.0,333.4 660.0,238.2 742.5,190.5 825.0,238.2" />
		<polygon id="G" class="quarry"
		points="742.5,190.5 660.0,238.2 577.5,190.5 577.5,95.3 660.0,47.6 742.5,95.3" />
		<polygon id="H" class="quarry"
		points="577.5,190.5 495.0,238.2 412.5,190.5 412.5,95.3 495.0,47.6 577.5,95.3" />
		<polygon id="I" class="pasture"
		points="412.5,190.5 330.0,238.2 247.5,190.5 247.5,95.3 330.0,47.6 412.5,95.3" />
		<polygon id="J" class="fields"
		points="330.0,333.4 247.5,381.1 165.0,333.4 165.0,238.2 247.5,190.5 330.0,238.2" />
		<polygon id="K" class="pasture"
		points="247.5,476.3 165.0,523.9 82.5,476.3 82.5,381.1 165.0,333.4 247.5,381.1" />
		<polygon id="L" class="desert"
		points="330.0,619.2 247.5,666.8 165.0,619.2 165.0,523.9 247.5,476.3 330.0,523.9" />
		<polygon id="M" class="hills"
		points="495.0,619.2 412.5,666.8 330.0,619.2 330.0,523.9 412.5,476.3 495.0,523.9" />
		<polygon id="N" class="forest"
		points="660.0,619.2 577.5,666.8 495.0,619.2 495.0,523.9 577.5,476.3 660.0,523.9" />
		<polygon id="O" class="desert"
		points="742.5,476.3 660.0,523.9 577.5,476.3 577.5,381.1 660.0,333.4 742.5,381.1" />
		<polygon id="P" class="pasture"
		points="660.0,333.4 577.5,381.1 495.0,333.4 495.0,238.2 577.5,190.5 660.0,238.2" />
		<polygon id="Q" class="quarry"
		points="495.0,333.4 412.5,381.1 330.0,333.4 330.0,238.2 412.5,190.5 495.0,238.2" />
		<polygon id="R" class="hills"
		points="412.5,476.3 330.0,523.9 247.5,476.3 247.5,381.1 330.0,333.4 412.5,381.1" />
		<polygon id="S" class="forest"
		points="577.5,476.3 495.0,523.9 412.5,476.3 412.5,381.1 495.0,333.4 577.5,381.1" />
	</g>
	<g id="tokens" transform="translate(5 5)">
		<circle id="A" cx="330.0" cy="714.5" r="30" />
		<circle id="B" cx="495.0" cy="714.5" r="30" />
		<circle id="C" cx="660.0" cy="714.5" r="30" />
		<circle id="D" cx="742.5" cy="571.6" r="30" />
		<circle id="E" cx="825.0" cy="428.7" r="30" />
		<circle id="F" cx="742.5" cy="285.8" r="30" />
		<circle id="G" cx="660.0" cy="142.9" r="30" />
		<circle id="H" cx="495.0" cy="142.9" r="30" />
		<circle id="I" cx="330.0" cy="142.9" r="30" />
		<circle id="J" cx="247.5" cy="285.8" r="30" />
		<circle id="K" cx="165.0" cy="428.7" r="30" />
		<circle id="L" cx="247.5" cy="571.6" r="30" />
		<circle id="M" cx="412.5" cy="571.6" r="30" />
		<circle id="N" cx="577.5" cy="571.6" r="30" />
		<circle id="O" cx="660.0" cy="428.7" r="30" />
		<circle id="P" cx="577.5" cy="285.8" r="30" />
		<circle id="Q" cx="412.5" cy="285.8" r="30" />
		<circle id="R" cx="330.0" cy="428.7" r="30" />
		<circle id="S" cx="495.0" cy="428.7" r="30" />
	</g>
	<g id="numerals" transform="translate(5 5)">
		<text id="A" x="330.0" y="714.5">A</text>
		<text id="B" x="495.0" y="714.5">B</text>
		<text id="C" x="660.0" y="714.5">C</text>
		<text id="D" x="742.5" y="571.6">D</text>
		<text id="E" x="825.0" y="428.7">E</text>
		<text id="F" x="742.5" y="285.8">F</text>
		<text id="G" x="660.0" y="142.9">G</text>
		<text id="H" x="495.0" y="142.9">H</text>
		<text id="I" x="330.0" y="142.9">I</text>
		<text id="J" x="247.5" y="285.8">J</text>
		<text id="K" x="165.0" y="428.7">K</text>
		<text id="L" x="247.5" y="571.6">L</text>
		<text id="M" x="412.5" y="571.6">M</text>
		<text id="N" x="577.5" y="571.6">N</text>
		<text id="O" x="660.0" y="428.7">O</text>
		<text id="P" x="577.5" y="285.8">P</text>
		<text id="Q" x="412.5" y="285.8">Q</text>
		<text id="R" x="330.0" y="428.7">R</text>
		<text id="S" x="495.0" y="428.7">S</text>
	</g>
</svg>