<?xml version="1.0" standalone="no" ?>
<?xml-stylesheet href="default.css" type="text/css" ?>

<svg xmlns="http://www.w3.org/2000/svg" 
		 type="image/svg+xml"
		 version="1.1"
		 id="test"
		 viewBox="-555 -500 1110 1000" preserveAspectRatio="xMidYMid meet" >

<polygon id="ocean" transform="rotate(30)"
points=" 476.3,275.0 0.0,550.0 -476.3,275.0 -476.3,-275.0 0.0,-550.0 476.3,-275.0 "/>

<g id="harbors">
	<g id="wood-port" class="harbor" 
		transform="translate(259.8, -150.0)">
		<circle cx="90" r="50" />
		<g>
			<rect x="110" y="-15" width="40" height="30" rx="3" />
			<text x="130">2:1</text>
		</g>
	</g>
	<g id="wheat-port" class="harbor" 
		transform="translate(173.2, -300.0)">
		<g transform="rotate(-60)">
			<circle cx="90" r="50" />
			<rect x="110" y="-15" width="40" height="30" rx="3" 
				transform="rotate(60, 130,0)" />
			<text x="130" transform="rotate(60, 130,0)">2:1</text>
		</g>
	</g>
</g>

<g id="tiles">
<g class="tile" transform="translate(-173.2, 300.0)">
<polygon class="quarry"
points=" 86.6,50.0 0.0,100.0 -86.6,50.0 -86.6,-50.0 0.0,-100.0 86.6,-50.0 "/>
<g id="A" class="token">
<circle cx="0" cy="0" r="30" />
<text x="0" y="-5" >5</text>
<text x="0" y="5" >....</text>
</g>
</g>
<g class="tile" transform="translate(-0.0, 300.0)">
<polygon class="fields"
points=" 86.6,50.0 0.0,100.0 -86.6,50.0 -86.6,-50.0 0.0,-100.0 86.6,-50.0 "/>
<g id="B" class="token">
<circle cx="0" cy="0" r="30" />
<text x="0" y="-5" >2</text>
<text x="0" y="5" >.</text>
</g>
</g>
<g class="tile" transform="translate(173.2, 300.0)">
<polygon class="forest"
points=" 86.6,50.0 0.0,100.0 -86.6,50.0 -86.6,-50.0 0.0,-100.0 86.6,-50.0 "/>
<g id="C" class="token">
<circle cx="0" cy="0" r="30" />
<text x="0" y="-5" style="stroke:maroon" >6</text>
<text x="0" y="5" style="stroke:maroon" >.....</text>
</g>
</g>
<g class="tile" transform="translate(259.8, 150.0)">
<polygon class="quarry"
points=" 86.6,50.0 0.0,100.0 -86.6,50.0 -86.6,-50.0 0.0,-100.0 86.6,-50.0 "/>
<g id="D" class="token">
<circle cx="0" cy="0" r="30" />
<text x="0" y="-5" >3</text>
<text x="0" y="5" >..</text>
</g>
</g>
<g class="tile" transform="translate(346.4, 0.0)">
<polygon class="fields"
points=" 86.6,50.0 0.0,100.0 -86.6,50.0 -86.6,-50.0 0.0,-100.0 86.6,-50.0 "/>
<g id="E" class="token">
<circle cx="0" cy="0" r="30" />
<text x="0" y="-5" style="stroke:maroon" >8</text>
<text x="0" y="5" style="stroke:maroon" >.....</text>
</g>
</g>
<g class="tile" transform="translate(259.8, -150.0)">
<polygon class="pasture"
points=" 86.6,50.0 0.0,100.0 -86.6,50.0 -86.6,-50.0 0.0,-100.0 86.6,-50.0 "/>
<g id="F" class="token">
<circle cx="0" cy="0" r="30" />
<text x="0" y="-5" >10</text>
<text x="0" y="5" >...</text>
</g>
</g>
<g class="tile" transform="translate(173.2, -300.0)">
<polygon class="fields"
points=" 86.6,50.0 0.0,100.0 -86.6,50.0 -86.6,-50.0 0.0,-100.0 86.6,-50.0 "/>
<g id="G" class="token">
<circle cx="0" cy="0" r="30" />
<text x="0" y="-5" >9</text>
<text x="0" y="5" >....</text>
</g>
</g>
<g class="tile" transform="translate(-0.0, -300.0)">
<polygon class="pasture"
points=" 86.6,50.0 0.0,100.0 -86.6,50.0 -86.6,-50.0 0.0,-100.0 86.6,-50.0 "/>
<g id="H" class="token">
<circle cx="0" cy="0" r="30" />
<text x="0" y="-5" >12</text>
<text x="0" y="5" >.</text>
</g>
</g>
<g class="tile" transform="translate(-173.2, -300.0)">
<polygon class="forest"
points=" 86.6,50.0 0.0,100.0 -86.6,50.0 -86.6,-50.0 0.0,-100.0 86.6,-50.0 "/>
<g id="I" class="token">
<circle cx="0" cy="0" r="30" />
<text x="0" y="-5" >11</text>
<text x="0" y="5" >..</text>
</g>
</g>
<g class="tile" transform="translate(-259.8, -150.0)">
<polygon class="hills"
points=" 86.6,50.0 0.0,100.0 -86.6,50.0 -86.6,-50.0 0.0,-100.0 86.6,-50.0 "/>
<g id="J" class="token">
<circle cx="0" cy="0" r="30" />
<text x="0" y="-5" >4</text>
<text x="0" y="5" >...</text>
</g>
</g>
<g class="tile" transform="translate(-346.4, 0.0)">
<polygon class="desert"
points=" 86.6,50.0 0.0,100.0 -86.6,50.0 -86.6,-50.0 0.0,-100.0 86.6,-50.0 "/>
</g>
<g class="tile" transform="translate(-259.8, 150.0)">
<polygon class="hills"
points=" 86.6,50.0 0.0,100.0 -86.6,50.0 -86.6,-50.0 0.0,-100.0 86.6,-50.0 "/>
<g id="K" class="token">
<circle cx="0" cy="0" r="30" />
<text x="0" y="-5" style="stroke:maroon" >8</text>
<text x="0" y="5" style="stroke:maroon" >.....</text>
</g>
</g>
<g class="tile" transform="translate(-86.6, 150.0)">
<polygon class="pasture"
points=" 86.6,50.0 0.0,100.0 -86.6,50.0 -86.6,-50.0 0.0,-100.0 86.6,-50.0 "/>
<g id="L" class="token">
<circle cx="0" cy="0" r="30" />
<text x="0" y="-5" >10</text>
<text x="0" y="5" >...</text>
</g>
</g>
<g class="tile" transform="translate(86.6, 150.0)">
<polygon class="pasture"
points=" 86.6,50.0 0.0,100.0 -86.6,50.0 -86.6,-50.0 0.0,-100.0 86.6,-50.0 "/>
<g id="M" class="token">
<circle cx="0" cy="0" r="30" />
<text x="0" y="-5" >9</text>
<text x="0" y="5" >....</text>
</g>
</g>
<g class="tile" transform="translate(173.2, 0.0)">
<polygon class="forest"
points=" 86.6,50.0 0.0,100.0 -86.6,50.0 -86.6,-50.0 0.0,-100.0 86.6,-50.0 "/>
<g id="N" class="token">
<circle cx="0" cy="0" r="30" />
<text x="0" y="-5" >4</text>
<text x="0" y="5" >...</text>
</g>
</g>
<g class="tile" transform="translate(86.6, -150.0)">
<polygon class="hills"
points=" 86.6,50.0 0.0,100.0 -86.6,50.0 -86.6,-50.0 0.0,-100.0 86.6,-50.0 "/>
<g id="O" class="token">
<circle cx="0" cy="0" r="30" />
<text x="0" y="-5" >5</text>
<text x="0" y="5" >....</text>
</g>
</g>
<g class="tile" transform="translate(-86.6, -150.0)">
<polygon class="quarry"
points=" 86.6,50.0 0.0,100.0 -86.6,50.0 -86.6,-50.0 0.0,-100.0 86.6,-50.0 "/>
<g id="P" class="token">
<circle cx="0" cy="0" r="30" />
<text x="0" y="-5" style="stroke:maroon" >6</text>
<text x="0" y="5" style="stroke:maroon" >.....</text>
</g>
</g>
<g class="tile" transform="translate(-173.2, 0.0)">
<polygon class="forest"
points=" 86.6,50.0 0.0,100.0 -86.6,50.0 -86.6,-50.0 0.0,-100.0 86.6,-50.0 "/>
<g id="Q" class="token">
<circle cx="0" cy="0" r="30" />
<text x="0" y="-5" >3</text>
<text x="0" y="5" >..</text>
</g>
</g>
<g class="tile" transform="translate(0.0, 0.0)">
<polygon class="fields"
points=" 86.6,50.0 0.0,100.0 -86.6,50.0 -86.6,-50.0 0.0,-100.0 86.6,-50.0 "/>
<g id="R" class="token">
<circle cx="0" cy="0" r="30" />
<text x="0" y="-5" >11</text>
<text x="0" y="5" >..</text>
</g>
</g>
</g>
<g id="buildings">
<polygon id="0" class="unowned"
points="-15,15 -15,-5 0,-15 15,-5 15,15"
transform="translate(173.2,400.0)" />
<polygon id="1" class="unowned"
points="-15,15 -15,-5 0,-15 15,-5 15,15"
transform="translate(-173.2,-200.0)" />
<polygon id="2" class="unowned"
points="-15,15 -15,-5 0,-15 15,-5 15,15"
transform="translate(-86.6,-250.0)" />
<polygon id="3" class="unowned"
points="-15,15 -15,-5 0,-15 15,-5 15,15"
transform="translate(-0.0,-200.0)" />
<polygon id="4" class="unowned"
points="-15,15 -15,-5 0,-15 15,-5 15,15"
transform="translate(259.8,-50.0)" />
<polygon id="5" class="unowned"
points="-15,15 -15,-5 0,-15 15,-5 15,15"
transform="translate(-259.8,-250.0)" />
<polygon id="6" class="unowned"
points="-15,15 -15,-5 0,-15 15,-5 15,15"
transform="translate(-173.2,-100.0)" />
<polygon id="7" class="unowned"
points="-15,15 -15,-5 0,-15 15,-5 15,15"
transform="translate(-86.6,350.0)" />
<polygon id="8" class="unowned"
points="-15,15 -15,-5 0,-15 15,-5 15,15"
transform="translate(-0.0,400.0)" />
<polygon id="9" class="unowned"
points="-15,15 -15,-5 0,-15 15,-5 15,15"
transform="translate(86.6,-50.0)" />
<polygon id="10" class="unowned"
points="-15,15 -15,-5 0,-15 15,-5 15,15"
transform="translate(-259.8,350.0)" />
<polygon id="11" class="unowned"
points="-15,15 -15,-5 0,-15 15,-5 15,15"
transform="translate(-346.4,-100.0)" />
<polygon id="12" class="unowned"
points="-15,15 -15,-5 0,-15 15,-5 15,15"
transform="translate(-0.0,200.0)" />
<polygon id="13" class="unowned"
points="-15,15 -15,-5 0,-15 15,-5 15,15"
transform="translate(433.0,-50.0)" />
<polygon id="14" class="unowned"
points="-15,15 -15,-5 0,-15 15,-5 15,15"
transform="translate(346.4,200.0)" />
<polygon id="15" class="unowned"
points="-15,15 -15,-5 0,-15 15,-5 15,15"
transform="translate(-86.6,-350.0)" />
<polygon id="16" class="unowned"
points="-15,15 -15,-5 0,-15 15,-5 15,15"
transform="translate(0.0,-100.0)" />
<polygon id="17" class="unowned"
points="-15,15 -15,-5 0,-15 15,-5 15,15"
transform="translate(433.0,50.0)" />
<polygon id="18" class="unowned"
points="-15,15 -15,-5 0,-15 15,-5 15,15"
transform="translate(-173.2,100.0)" />
<polygon id="19" class="unowned"
points="-15,15 -15,-5 0,-15 15,-5 15,15"
transform="translate(259.8,50.0)" />
<polygon id="20" class="unowned"
points="-15,15 -15,-5 0,-15 15,-5 15,15"
transform="translate(-259.8,-350.0)" />
<polygon id="21" class="unowned"
points="-15,15 -15,-5 0,-15 15,-5 15,15"
transform="translate(173.2,100.0)" />
<polygon id="22" class="unowned"
points="-15,15 -15,-5 0,-15 15,-5 15,15"
transform="translate(-86.6,250.0)" />
<polygon id="23" class="unowned"
points="-15,15 -15,-5 0,-15 15,-5 15,15"
transform="translate(86.6,50.0)" />
<polygon id="24" class="unowned"
points="-15,15 -15,-5 0,-15 15,-5 15,15"
transform="translate(-173.2,200.0)" />
<polygon id="25" class="unowned"
points="-15,15 -15,-5 0,-15 15,-5 15,15"
transform="translate(-259.8,250.0)" />
<polygon id="26" class="unowned"
points="-15,15 -15,-5 0,-15 15,-5 15,15"
transform="translate(-346.4,100.0)" />
<polygon id="27" class="unowned"
points="-15,15 -15,-5 0,-15 15,-5 15,15"
transform="translate(-0.0,-400.0)" />
<polygon id="28" class="unowned"
points="-15,15 -15,-5 0,-15 15,-5 15,15"
transform="translate(259.8,350.0)" />
<polygon id="29" class="unowned"
points="-15,15 -15,-5 0,-15 15,-5 15,15"
transform="translate(346.4,-200.0)" />
<polygon id="30" class="unowned"
points="-15,15 -15,-5 0,-15 15,-5 15,15"
transform="translate(173.2,-200.0)" />
<polygon id="31" class="unowned"
points="-15,15 -15,-5 0,-15 15,-5 15,15"
transform="translate(346.4,100.0)" />
<polygon id="32" class="unowned"
points="-15,15 -15,-5 0,-15 15,-5 15,15"
transform="translate(259.8,250.0)" />
<polygon id="33" class="unowned"
points="-15,15 -15,-5 0,-15 15,-5 15,15"
transform="translate(173.2,-400.0)" />
<polygon id="34" class="unowned"
points="-15,15 -15,-5 0,-15 15,-5 15,15"
transform="translate(-86.6,50.0)" />
<polygon id="35" class="unowned"
points="-15,15 -15,-5 0,-15 15,-5 15,15"
transform="translate(86.6,250.0)" />
<polygon id="36" class="unowned"
points="-15,15 -15,-5 0,-15 15,-5 15,15"
transform="translate(259.8,-350.0)" />
<polygon id="37" class="unowned"
points="-15,15 -15,-5 0,-15 15,-5 15,15"
transform="translate(-173.2,-400.0)" />
<polygon id="38" class="unowned"
points="-15,15 -15,-5 0,-15 15,-5 15,15"
transform="translate(-433.0,50.0)" />
<polygon id="39" class="unowned"
points="-15,15 -15,-5 0,-15 15,-5 15,15"
transform="translate(0.0,100.0)" />
<polygon id="40" class="unowned"
points="-15,15 -15,-5 0,-15 15,-5 15,15"
transform="translate(86.6,-350.0)" />
<polygon id="41" class="unowned"
points="-15,15 -15,-5 0,-15 15,-5 15,15"
transform="translate(173.2,200.0)" />
<polygon id="42" class="unowned"
points="-15,15 -15,-5 0,-15 15,-5 15,15"
transform="translate(-433.0,-50.0)" />
<polygon id="43" class="unowned"
points="-15,15 -15,-5 0,-15 15,-5 15,15"
transform="translate(346.4,-100.0)" />
<polygon id="44" class="unowned"
points="-15,15 -15,-5 0,-15 15,-5 15,15"
transform="translate(-86.6,-50.0)" />
<polygon id="45" class="unowned"
points="-15,15 -15,-5 0,-15 15,-5 15,15"
transform="translate(173.2,-100.0)" />
<polygon id="46" class="unowned"
points="-15,15 -15,-5 0,-15 15,-5 15,15"
transform="translate(86.6,350.0)" />
<polygon id="47" class="unowned"
points="-15,15 -15,-5 0,-15 15,-5 15,15"
transform="translate(259.8,-250.0)" />
<polygon id="48" class="unowned"
points="-15,15 -15,-5 0,-15 15,-5 15,15"
transform="translate(-259.8,-50.0)" />
<polygon id="49" class="unowned"
points="-15,15 -15,-5 0,-15 15,-5 15,15"
transform="translate(86.6,-250.0)" />
<polygon id="50" class="unowned"
points="-15,15 -15,-5 0,-15 15,-5 15,15"
transform="translate(-346.4,-200.0)" />
<polygon id="51" class="unowned"
points="-15,15 -15,-5 0,-15 15,-5 15,15"
transform="translate(-173.2,400.0)" />
<polygon id="52" class="unowned"
points="-15,15 -15,-5 0,-15 15,-5 15,15"
transform="translate(-259.8,50.0)" />
<polygon id="53" class="unowned"
points="-15,15 -15,-5 0,-15 15,-5 15,15"
transform="translate(-346.4,200.0)" />

	<polygon class="p2"
		points="-15,-5 -15,-15 0,-25 15,-15 15,-5 30,-5 30,15 -30,15 -30,-5"
		transform="translate(-259.8,50.0)" />
	<polygon class="p3"
		points="-30,-5 -30,-15 -15,-25 0,-15 0,-5 30,-5 30,15 -30,15 -30,-5"
		transform="translate(-346.4,200.0)" />
	</g>
</svg>