<?xml version="1.0" standalone="no" ?>
<?xml-stylesheet href="default.css" type="text/css" ?>

<svg xmlns="http://www.w3.org/2000/svg" 
		 xmlns:xlink="http://www.w3.org/1999/xlink"
		 type="image/svg+xml"
		 version="1.1"
		 id="test"
		 viewBox="-555 -500 1110 1000" preserveAspectRatio="xMidYMid meet" >

<def>
	<polygon id="settlement" points="-15,15 -15,-5 0,-15 15,-5 15,15" />
	<polygon id="city"
		points="-15,-5 -15,-15 0,-25 15,-15 15,-5 30,-5 30,15 -30,15 -30,-5" />
	<polygon id="city-b"
		points="-30,-5 -30,-15 -15,-25 0,-15 0,-5 30,-5 30,15 -30,15 -30,-5" />
</def>

<polygon id="ocean" transform="rotate(30)"
points=" 476.3,275.0 0.0,550.0 -476.3,275.0 -476.3,-275.0 0.0,-550.0 476.3,-275.0 "/>

<g id="harbors">
	<g id="wood-port" class="harbor" 
		transform="translate(259.8, -150.0) rotate(0)">
		<circle cx="90" r="50" />
			<rect x="110" y="-15" width="40" height="30" rx="3" />
			<text x="130" transform="rotate(0, 130,0)">2:1</text>
	</g>
	<g id="wheat-port" class="harbor" 
		transform="translate(173.2, -300.0) rotate(-60)">
			<circle cx="90" r="50" />
			<rect x="110" y="-15" width="40" height="30" rx="3" 
				transform="rotate(60, 130,0)" />
			<text x="130" transform="rotate(60, 130,0)">2:1</text>
	</g>
</g>

<g id="tiles">
<g class="tile" transform="translate(-173.2, 300.0)">
<polygon class="quarry"
points=" 86.6,50.0 0.0,100.0 -86.6,50.0 -86.6,-50.0 0.0,-100.0 86.6,-50.0 "/>
<g id="A" class="token">
<circle cx="0" cy="0" r="30" />
<text x="0" y="-5" >5</text>
<text x="0" y="5" >....</text>
</g>
</g>
<g class="tile" transform="translate(-0.0, 300.0)">
<polygon class="fields"
points=" 86.6,50.0 0.0,100.0 -86.6,50.0 -86.6,-50.0 0.0,-100.0 86.6,-50.0 "/>
<g id="B" class="token">
<circle cx="0" cy="0" r="30" />
<text x="0" y="-5" >2</text>
<text x="0" y="5" >.</text>
</g>
</g>
<g class="tile" transform="translate(173.2, 300.0)">
<polygon class="forest"
points=" 86.6,50.0 0.0,100.0 -86.6,50.0 -86.6,-50.0 0.0,-100.0 86.6,-50.0 "/>
<g id="C" class="token">
<circle cx="0" cy="0" r="30" />
<text x="0" y="-5" style="stroke:maroon" >6</text>
<text x="0" y="5" style="stroke:maroon" >.....</text>
</g>
</g>
<g class="tile" transform="translate(259.8, 150.0)">
<polygon class="quarry"
points=" 86.6,50.0 0.0,100.0 -86.6,50.0 -86.6,-50.0 0.0,-100.0 86.6,-50.0 "/>
<g id="D" class="token">
<circle cx="0" cy="0" r="30" />
<text x="0" y="-5" >3</text>
<text x="0" y="5" >..</text>
</g>
</g>
<g class="tile" transform="translate(346.4, 0.0)">
<polygon class="fields"
points=" 86.6,50.0 0.0,100.0 -86.6,50.0 -86.6,-50.0 0.0,-100.0 86.6,-50.0 "/>
<g id="E" class="token">
<circle cx="0" cy="0" r="30" />
<text x="0" y="-5" style="stroke:maroon" >8</text>
<text x="0" y="5" style="stroke:maroon" >.....</text>
</g>
</g>
<g class="tile" transform="translate(259.8, -150.0)">
<polygon class="pasture"
points=" 86.6,50.0 0.0,100.0 -86.6,50.0 -86.6,-50.0 0.0,-100.0 86.6,-50.0 "/>
<g id="F" class="token">
<circle cx="0" cy="0" r="30" />
<text x="0" y="-5" >10</text>
<text x="0" y="5" >...</text>
</g>
</g>
<g class="tile" transform="translate(173.2, -300.0)">
<polygon class="fields"
points=" 86.6,50.0 0.0,100.0 -86.6,50.0 -86.6,-50.0 0.0,-100.0 86.6,-50.0 "/>
<g id="G" class="token">
<circle cx="0" cy="0" r="30" />
<text x="0" y="-5" >9</text>
<text x="0" y="5" >....</text>
</g>
</g>
<g class="tile" transform="translate(-0.0, -300.0)">
<polygon class="pasture"
points=" 86.6,50.0 0.0,100.0 -86.6,50.0 -86.6,-50.0 0.0,-100.0 86.6,-50.0 "/>
<g id="H" class="token">
<circle cx="0" cy="0" r="30" />
<text x="0" y="-5" >12</text>
<text x="0" y="5" >.</text>
</g>
</g>
<g class="tile" transform="translate(-173.2, -300.0)">
<polygon class="forest"
points=" 86.6,50.0 0.0,100.0 -86.6,50.0 -86.6,-50.0 0.0,-100.0 86.6,-50.0 "/>
<g id="I" class="token">
<circle cx="0" cy="0" r="30" />
<text x="0" y="-5" >11</text>
<text x="0" y="5" >..</text>
</g>
</g>
<g class="tile" transform="translate(-259.8, -150.0)">
<polygon class="hills"
points=" 86.6,50.0 0.0,100.0 -86.6,50.0 -86.6,-50.0 0.0,-100.0 86.6,-50.0 "/>
<g id="J" class="token">
<circle cx="0" cy="0" r="30" />
<text x="0" y="-5" >4</text>
<text x="0" y="5" >...</text>
</g>
</g>
<g class="tile" transform="translate(-346.4, 0.0)">
<polygon class="desert"
points=" 86.6,50.0 0.0,100.0 -86.6,50.0 -86.6,-50.0 0.0,-100.0 86.6,-50.0 "/>
</g>
<g class="tile" transform="translate(-259.8, 150.0)">
<polygon class="hills"
points=" 86.6,50.0 0.0,100.0 -86.6,50.0 -86.6,-50.0 0.0,-100.0 86.6,-50.0 "/>
<g id="K" class="token">
<circle cx="0" cy="0" r="30" />
<text x="0" y="-5" style="stroke:maroon" >8</text>
<text x="0" y="5" style="stroke:maroon" >.....</text>
</g>
</g>
<g class="tile" transform="translate(-86.6, 150.0)">
<polygon class="pasture"
points=" 86.6,50.0 0.0,100.0 -86.6,50.0 -86.6,-50.0 0.0,-100.0 86.6,-50.0 "/>
<g id="L" class="token">
<circle cx="0" cy="0" r="30" />
<text x="0" y="-5" >10</text>
<text x="0" y="5" >...</text>
</g>
</g>
<g class="tile" transform="translate(86.6, 150.0)">
<polygon class="pasture"
points=" 86.6,50.0 0.0,100.0 -86.6,50.0 -86.6,-50.0 0.0,-100.0 86.6,-50.0 "/>
<g id="M" class="token">
<circle cx="0" cy="0" r="30" />
<text x="0" y="-5" >9</text>
<text x="0" y="5" >....</text>
</g>
</g>
<g class="tile" transform="translate(173.2, 0.0)">
<polygon class="forest"
points=" 86.6,50.0 0.0,100.0 -86.6,50.0 -86.6,-50.0 0.0,-100.0 86.6,-50.0 "/>
<g id="N" class="token">
<circle cx="0" cy="0" r="30" />
<text x="0" y="-5" >4</text>
<text x="0" y="5" >...</text>
</g>
</g>
<g class="tile" transform="translate(86.6, -150.0)">
<polygon class="hills"
points=" 86.6,50.0 0.0,100.0 -86.6,50.0 -86.6,-50.0 0.0,-100.0 86.6,-50.0 "/>
<g id="O" class="token">
<circle cx="0" cy="0" r="30" />
<text x="0" y="-5" >5</text>
<text x="0" y="5" >....</text>
</g>
</g>
<g class="tile" transform="translate(-86.6, -150.0)">
<polygon class="quarry"
points=" 86.6,50.0 0.0,100.0 -86.6,50.0 -86.6,-50.0 0.0,-100.0 86.6,-50.0 "/>
<g id="P" class="token">
<circle cx="0" cy="0" r="30" />
<text x="0" y="-5" style="stroke:maroon" >6</text>
<text x="0" y="5" style="stroke:maroon" >.....</text>
</g>
</g>
<g class="tile" transform="translate(-173.2, 0.0)">
<polygon class="forest"
points=" 86.6,50.0 0.0,100.0 -86.6,50.0 -86.6,-50.0 0.0,-100.0 86.6,-50.0 "/>
<g id="Q" class="token">
<circle cx="0" cy="0" r="30" />
<text x="0" y="-5" >3</text>
<text x="0" y="5" >..</text>
</g>
</g>
<g class="tile" transform="translate(0.0, 0.0)">
<polygon class="fields"
points=" 86.6,50.0 0.0,100.0 -86.6,50.0 -86.6,-50.0 0.0,-100.0 86.6,-50.0 "/>
<g id="R" class="token">
<circle cx="0" cy="0" r="30" />
<text x="0" y="-5" >11</text>
<text x="0" y="5" >..</text>
</g>
</g>
</g>

<g id="roads">
	<g id="0" transform="rotate(0)">
		<path d="M 86.6 -35 L 86.6 35" stroke="white" stroke-width="16" />
		<path d="M 86.6 -35 L 86.6 35" stroke="hotpink" stroke-width="10" />
	</g>
</g>

<g id="buildings">
<use id="0" xlink:href="#settlement" x="173.2" y="400.0" class="unowned" />
<use id="1" xlink:href="#settlement" x="-173.2" y="-200.0" class="unowned" />
<use id="2" xlink:href="#settlement" x="-86.6" y="-250.0" class="unowned" />
<use id="3" xlink:href="#settlement" x="-0.0" y="-200.0" class="unowned" />
<use id="4" xlink:href="#settlement" x="259.8" y="-50.0" class="unowned" />
<use id="5" xlink:href="#settlement" x="-259.8" y="-250.0" class="unowned" />
<use id="6" xlink:href="#settlement" x="-173.2" y="-100.0" class="unowned" />
<use id="7" xlink:href="#settlement" x="-86.6" y="350.0" class="unowned" />
<use id="8" xlink:href="#settlement" x="-0.0" y="400.0" class="unowned" />
<use id="9" xlink:href="#settlement" x="86.6" y="-50.0" class="unowned" />
<use id="10" xlink:href="#settlement" x="-259.8" y="350.0" class="unowned" />
<use id="11" xlink:href="#settlement" x="-346.4" y="-100.0" class="unowned" />
<use id="12" xlink:href="#settlement" x="-0.0" y="200.0" class="unowned" />
<use id="13" xlink:href="#settlement" x="433.0" y="-50.0" class="unowned" />
<use id="14" xlink:href="#settlement" x="346.4" y="200.0" class="unowned" />
<use id="15" xlink:href="#settlement" x="-86.6" y="-350.0" class="unowned" />
<use id="16" xlink:href="#settlement" x="0.0" y="-100.0" class="unowned" />
<use id="17" xlink:href="#settlement" x="433.0" y="50.0" class="unowned" />
<use id="18" xlink:href="#settlement" x="-173.2" y="100.0" class="unowned" />
<use id="19" xlink:href="#settlement" x="259.8" y="50.0" class="unowned" />
<use id="20" xlink:href="#settlement" x="-259.8" y="-350.0" class="unowned" />
<use id="21" xlink:href="#settlement" x="173.2" y="100.0" class="unowned" />
<use id="22" xlink:href="#settlement" x="-86.6" y="250.0" class="unowned" />
<use id="23" xlink:href="#settlement" x="86.6" y="50.0" class="p1" />
<use id="24" xlink:href="#settlement" x="-173.2" y="200.0" class="unowned" />
<use id="25" xlink:href="#settlement" x="-259.8" y="250.0" class="unowned" />
<use id="26" xlink:href="#settlement" x="-346.4" y="100.0" class="unowned" />
<use id="27" xlink:href="#settlement" x="-0.0" y="-400.0" class="unowned" />
<use id="28" xlink:href="#settlement" x="259.8" y="350.0" class="unowned" />
<use id="29" xlink:href="#settlement" x="346.4" y="-200.0" class="unowned" />
<use id="30" xlink:href="#settlement" x="173.2" y="-200.0" class="unowned" />
<use id="31" xlink:href="#settlement" x="346.4" y="100.0" class="unowned" />
<use id="32" xlink:href="#settlement" x="259.8" y="250.0" class="unowned" />
<use id="33" xlink:href="#settlement" x="173.2" y="-400.0" class="unowned" />
<use id="34" xlink:href="#settlement" x="-86.6" y="50.0" class="unowned" />
<use id="35" xlink:href="#settlement" x="86.6" y="250.0" class="unowned" />
<use id="36" xlink:href="#settlement" x="259.8" y="-350.0" class="unowned" />
<use id="37" xlink:href="#settlement" x="-173.2" y="-400.0" class="unowned" />
<use id="38" xlink:href="#settlement" x="-433.0" y="50.0" class="unowned" />
<use id="39" xlink:href="#settlement" x="0.0" y="100.0" class="unowned" />
<use id="40" xlink:href="#settlement" x="86.6" y="-350.0" class="unowned" />
<use id="41" xlink:href="#settlement" x="173.2" y="200.0" class="unowned" />
<use id="42" xlink:href="#settlement" x="-433.0" y="-50.0" class="unowned" />
<use id="43" xlink:href="#settlement" x="346.4" y="-100.0" class="unowned" />
<use id="44" xlink:href="#settlement" x="-86.6" y="-50.0" class="unowned" />
<use id="45" xlink:href="#settlement" x="173.2" y="-100.0" class="unowned" />
<use id="46" xlink:href="#settlement" x="86.6" y="350.0" class="unowned" />
<use id="47" xlink:href="#settlement" x="259.8" y="-250.0" class="unowned" />
<use id="48" xlink:href="#settlement" x="-259.8" y="-50.0" class="unowned" />
<use id="49" xlink:href="#settlement" x="86.6" y="-250.0" class="unowned" />
<use id="50" xlink:href="#settlement" x="-346.4" y="-200.0" class="unowned" />
<use id="51" xlink:href="#settlement" x="-173.2" y="400.0" class="unowned" />
<use id="52" xlink:href="#settlement" x="-259.8" y="50.0" class="unowned" />
<use id="53" xlink:href="#settlement" x="-346.4" y="200.0" class="unowned" />
	<use x="-259.8" y="50.0" xlink:href="#city" />
	<use x="-346.4" y="200.0" xlink:href="#city-b" />
	</g>
</svg>