<?xml version="1.0" standalone="no" ?>
<?xml-stylesheet href="default.css" type="text/css"?>

<svg xmlns="http://www.w3.org/2000/svg" 
		 version="1.1"
		 id="test"
		 width="1010"
     height="900">

	<g id="resources">
		<polygon id="A" class="quarry"
		transform="translate(326,733)"
		points=" 86,50 0,100 -86,50 -86,-50 0,-100 86,-50 "/>
		<polygon id="B" class="fields"
		transform="translate(500,733)"
		points=" 86,50 0,100 -86,50 -86,-50 0,-100 86,-50 "/>
		<polygon id="C" class="forest"
		transform="translate(673,733)"
		points=" 86,50 0,100 -86,50 -86,-50 0,-100 86,-50 "/>
		<polygon id="D" class="quarry"
		transform="translate(759,583)"
		points=" 86,50 0,100 -86,50 -86,-50 0,-100 86,-50 "/>
		<polygon id="E" class="fields"
		transform="translate(846,433)"
		points=" 86,50 0,100 -86,50 -86,-50 0,-100 86,-50 "/>
		<polygon id="F" class="pasture"
		transform="translate(759,283)"
		points=" 86,50 0,100 -86,50 -86,-50 0,-100 86,-50 "/>
		<polygon id="G" class="fields"
		transform="translate(673,133)"
		points=" 86,50 0,100 -86,50 -86,-50 0,-100 86,-50 "/>
		<polygon id="H" class="pasture"
		transform="translate(500,133)"
		points=" 86,50 0,100 -86,50 -86,-50 0,-100 86,-50 "/>
		<polygon id="I" class="forest"
		transform="translate(326,133)"
		points=" 86,50 0,100 -86,50 -86,-50 0,-100 86,-50 "/>
		<polygon id="J" class="hills"
		transform="translate(240,283)"
		points=" 86,50 0,100 -86,50 -86,-50 0,-100 86,-50 "/>
		<polygon id="K" class="desert"
		transform="translate(153,433)"
		points=" 86,50 0,100 -86,50 -86,-50 0,-100 86,-50 "/>
		<polygon id="L" class="hills"
		transform="translate(240,583)"
		points=" 86,50 0,100 -86,50 -86,-50 0,-100 86,-50 "/>
		<polygon id="M" class="pasture"
		transform="translate(413,583)"
		points=" 86,50 0,100 -86,50 -86,-50 0,-100 86,-50 "/>
		<polygon id="N" class="pasture"
		transform="translate(586,583)"
		points=" 86,50 0,100 -86,50 -86,-50 0,-100 86,-50 "/>
		<polygon id="O" class="forest"
		transform="translate(673,433)"
		points=" 86,50 0,100 -86,50 -86,-50 0,-100 86,-50 "/>
		<polygon id="P" class="hills"
		transform="translate(586,283)"
		points=" 86,50 0,100 -86,50 -86,-50 0,-100 86,-50 "/>
		<polygon id="Q" class="quarry"
		transform="translate(413,283)"
		points=" 86,50 0,100 -86,50 -86,-50 0,-100 86,-50 "/>
		<polygon id="R" class="forest"
		transform="translate(326,433)"
		points=" 86,50 0,100 -86,50 -86,-50 0,-100 86,-50 "/>
		<polygon id="S" class="fields"
		transform="translate(500,433)"
		points=" 86,50 0,100 -86,50 -86,-50 0,-100 86,-50 "/>
	</g>
	<g id="buildings">
		<polygon id="0" class="unowned"
		points="-20,20 -20,-5 0,-20 20,-5 20,20"
		transform="translate(500,33)" />
		<polygon id="1" class="unowned"
		points="-20,20 -20,-5 0,-20 20,-5 20,20"
		transform="translate(327,33)" />
		<polygon id="2" class="unowned"
		points="-20,20 -20,-5 0,-20 20,-5 20,20"
		transform="translate(673,33)" />
		<polygon id="3" class="unowned"
		points="-20,20 -20,-5 0,-20 20,-5 20,20"
		transform="translate(413,83)" />
		<polygon id="4" class="unowned"
		points="-20,20 -20,-5 0,-20 20,-5 20,20"
		transform="translate(587,83)" />
		<polygon id="5" class="unowned"
		points="-20,20 -20,-5 0,-20 20,-5 20,20"
		transform="translate(240,83)" />
		<polygon id="6" class="unowned"
		points="-20,20 -20,-5 0,-20 20,-5 20,20"
		transform="translate(760,83)" />
		<polygon id="7" class="unowned"
		points="-20,20 -20,-5 0,-20 20,-5 20,20"
		transform="translate(760,183)" />
		<polygon id="8" class="unowned"
		points="-20,20 -20,-5 0,-20 20,-5 20,20"
		transform="translate(240,183)" />
		<polygon id="9" class="unowned"
		points="-20,20 -20,-5 0,-20 20,-5 20,20"
		transform="translate(587,183)" />
		<polygon id="10" class="unowned"
		points="-20,20 -20,-5 0,-20 20,-5 20,20"
		transform="translate(413,183)" />
		<polygon id="11" class="unowned"
		points="-20,20 -20,-5 0,-20 20,-5 20,20"
		transform="translate(500,233)" />
		<polygon id="12" class="unowned"
		points="-20,20 -20,-5 0,-20 20,-5 20,20"
		transform="translate(327,233)" />
		<polygon id="13" class="unowned"
		points="-20,20 -20,-5 0,-20 20,-5 20,20"
		transform="translate(673,233)" />
		<polygon id="14" class="unowned"
		points="-20,20 -20,-5 0,-20 20,-5 20,20"
		transform="translate(154,233)" />
		<polygon id="15" class="unowned"
		points="-20,20 -20,-5 0,-20 20,-5 20,20"
		transform="translate(846,233)" />
		<polygon id="16" class="unowned"
		points="-20,20 -20,-5 0,-20 20,-5 20,20"
		transform="translate(846,333)" />
		<polygon id="17" class="unowned"
		points="-20,20 -20,-5 0,-20 20,-5 20,20"
		transform="translate(154,333)" />
		<polygon id="18" class="unowned"
		points="-20,20 -20,-5 0,-20 20,-5 20,20"
		transform="translate(673,333)" />
		<polygon id="19" class="unowned"
		points="-20,20 -20,-5 0,-20 20,-5 20,20"
		transform="translate(500,333)" />
		<polygon id="20" class="unowned"
		points="-20,20 -20,-5 0,-20 20,-5 20,20"
		transform="translate(327,333)" />
		<polygon id="21" class="unowned"
		points="-20,20 -20,-5 0,-20 20,-5 20,20"
		transform="translate(933,383)" />
		<polygon id="22" class="unowned"
		points="-20,20 -20,-5 0,-20 20,-5 20,20"
		transform="translate(67,383)" />
		<polygon id="23" class="unowned"
		points="-20,20 -20,-5 0,-20 20,-5 20,20"
		transform="translate(240,383)" />
		<polygon id="24" class="unowned"
		points="-20,20 -20,-5 0,-20 20,-5 20,20"
		transform="translate(587,383)" />
		<polygon id="25" class="unowned"
		points="-20,20 -20,-5 0,-20 20,-5 20,20"
		transform="translate(413,383)" />
		<polygon id="26" class="unowned"
		points="-20,20 -20,-5 0,-20 20,-5 20,20"
		transform="translate(760,383)" />
		<polygon id="27" class="unowned"
		points="-20,20 -20,-5 0,-20 20,-5 20,20"
		transform="translate(67,483)" />
		<polygon id="28" class="unowned"
		points="-20,20 -20,-5 0,-20 20,-5 20,20"
		transform="translate(760,483)" />
		<polygon id="29" class="unowned"
		points="-20,20 -20,-5 0,-20 20,-5 20,20"
		transform="translate(587,483)" />
		<polygon id="30" class="unowned"
		points="-20,20 -20,-5 0,-20 20,-5 20,20"
		transform="translate(413,483)" />
		<polygon id="31" class="unowned"
		points="-20,20 -20,-5 0,-20 20,-5 20,20"
		transform="translate(933,483)" />
		<polygon id="32" class="unowned"
		points="-20,20 -20,-5 0,-20 20,-5 20,20"
		transform="translate(240,483)" />
		<polygon id="33" class="unowned"
		points="-20,20 -20,-5 0,-20 20,-5 20,20"
		transform="translate(500,533)" />
		<polygon id="34" class="unowned"
		points="-20,20 -20,-5 0,-20 20,-5 20,20"
		transform="translate(154,533)" />
		<polygon id="35" class="unowned"
		points="-20,20 -20,-5 0,-20 20,-5 20,20"
		transform="translate(673,533)" />
		<polygon id="36" class="unowned"
		points="-20,20 -20,-5 0,-20 20,-5 20,20"
		transform="translate(846,533)" />
		<polygon id="37" class="unowned"
		points="-20,20 -20,-5 0,-20 20,-5 20,20"
		transform="translate(327,533)" />
		<polygon id="38" class="unowned"
		points="-20,20 -20,-5 0,-20 20,-5 20,20"
		transform="translate(500,633)" />
		<polygon id="39" class="unowned"
		points="-20,20 -20,-5 0,-20 20,-5 20,20"
		transform="translate(673,633)" />
		<polygon id="40" class="unowned"
		points="-20,20 -20,-5 0,-20 20,-5 20,20"
		transform="translate(154,633)" />
		<polygon id="41" class="unowned"
		points="-20,20 -20,-5 0,-20 20,-5 20,20"
		transform="translate(846,633)" />
		<polygon id="42" class="unowned"
		points="-20,20 -20,-5 0,-20 20,-5 20,20"
		transform="translate(327,633)" />
		<polygon id="43" class="unowned"
		points="-20,20 -20,-5 0,-20 20,-5 20,20"
		transform="translate(413,683)" />
		<polygon id="44" class="unowned"
		points="-20,20 -20,-5 0,-20 20,-5 20,20"
		transform="translate(240,683)" />
		<polygon id="45" class="unowned"
		points="-20,20 -20,-5 0,-20 20,-5 20,20"
		transform="translate(760,683)" />
		<polygon id="46" class="unowned"
		points="-20,20 -20,-5 0,-20 20,-5 20,20"
		transform="translate(587,683)" />
		<polygon id="47" class="unowned"
		points="-20,20 -20,-5 0,-20 20,-5 20,20"
		transform="translate(240,783)" />
		<polygon id="48" class="unowned"
		points="-20,20 -20,-5 0,-20 20,-5 20,20"
		transform="translate(760,783)" />
		<polygon id="49" class="unowned"
		points="-20,20 -20,-5 0,-20 20,-5 20,20"
		transform="translate(587,783)" />
		<polygon id="50" class="unowned"
		points="-20,20 -20,-5 0,-20 20,-5 20,20"
		transform="translate(413,783)" />
		<polygon id="51" class="unowned"
		points="-20,20 -20,-5 0,-20 20,-5 20,20"
		transform="translate(673,833)" />
		<polygon id="52" class="unowned"
		points="-20,20 -20,-5 0,-20 20,-5 20,20"
		transform="translate(327,833)" />
		<polygon id="53" class="unowned"
		points="-20,20 -20,-5 0,-20 20,-5 20,20"
		transform="translate(500,833)" />

		<polygon class="city-p1"
			points="-25,5 -25,-20 30,-20 30,15 15, 25 0,15 0,5"
			transform="translate(673,533) rotate(180)" />
	</g>
	<g id="numerals">
		<g id="A" class="token" transform="translate(326.8, 733.0)">
			<circle cx="0" cy="0" r="30" />
			<text x="0" y="-5">5</text>
			<text x="0" y="5">....</text>
		</g>
		<g id="B" class="token" transform="translate(500.0, 733.0)">
			<circle cx="0" cy="0" r="30" />
			<text x="0" y="-5">2</text>
			<text x="0" y="5">.</text>
		</g>
		<g id="C" class="token" transform="translate(673.2, 733.0)">
			<circle cx="0" cy="0" r="30" />
			<text x="0" y="-5" stroke="red">6</text>
			<text x="0" y="5" stroke="red">.....</text>
		</g>
		<g id="D" class="token" transform="translate(759.8, 583.0)">
			<circle cx="0" cy="0" r="30" />
			<text x="0" y="-5">3</text>
			<text x="0" y="5">..</text>
		</g>
		<g id="E" class="token" transform="translate(846.4, 433.0)">
			<circle cx="0" cy="0" r="30" />
			<text x="0" y="-5" stroke="red">8</text>
			<text x="0" y="5" stroke="red">.....</text>
		</g>
		<g id="F" class="token" transform="translate(759.8, 283.0)">
			<circle cx="0" cy="0" r="30" />
			<text x="0" y="-5">10</text>
			<text x="0" y="5">...</text>
		</g>
		<g id="G" class="token" transform="translate(673.2, 133.0)">
			<circle cx="0" cy="0" r="30" />
			<text x="0" y="-5">9</text>
			<text x="0" y="5">....</text>
		</g>
		<g id="H" class="token" transform="translate(500.0, 133.0)">
			<circle cx="0" cy="0" r="30" />
			<text x="0" y="-5">12</text>
			<text x="0" y="5">.</text>
		</g>
		<g id="I" class="token" transform="translate(326.8, 133.0)">
			<circle cx="0" cy="0" r="30" />
			<text x="0" y="-5">11</text>
			<text x="0" y="5">..</text>
		</g>
		<g id="J" class="token" transform="translate(240.2, 283.0)">
			<circle cx="0" cy="0" r="30" />
			<text x="0" y="-5">4</text>
			<text x="0" y="5">...</text>
		</g>
		<g id="K" class="token" transform="translate(240.2, 583.0)">
			<circle cx="0" cy="0" r="30" />
			<text x="0" y="-5" stroke="red">8</text>
			<text x="0" y="5" stroke="red">.....</text>
		</g>
		<g id="L" class="token" transform="translate(413.4, 583.0)">
			<circle cx="0" cy="0" r="30" />
			<text x="0" y="-5">10</text>
			<text x="0" y="5">...</text>
		</g>
		<g id="M" class="token" transform="translate(586.6, 583.0)">
			<circle cx="0" cy="0" r="30" />
			<text x="0" y="-5">9</text>
			<text x="0" y="5">....</text>
		</g>
		<g id="N" class="token" transform="translate(673.2, 433.0)">
			<circle cx="0" cy="0" r="30" />
			<text x="0" y="-5">4</text>
			<text x="0" y="5">...</text>
		</g>
		<g id="O" class="token" transform="translate(586.6, 283.0)">
			<circle cx="0" cy="0" r="30" />
			<text x="0" y="-5">5</text>
			<text x="0" y="5">....</text>
		</g>
		<g id="P" class="token" transform="translate(413.4, 283.0)">
			<circle cx="0" cy="0" r="30" />
			<text x="0" y="-5" stroke="red">6</text>
			<text x="0" y="5" stroke="red">.....</text>
		</g>
		<g id="Q" class="token" transform="translate(326.8, 433.0)">
			<circle cx="0" cy="0" r="30" />
			<text x="0" y="-5">3</text>
			<text x="0" y="5">..</text>
		</g>
		<g id="R" class="token" transform="translate(500.0, 433.0)">
			<circle cx="0" cy="0" r="30" />
			<text x="0" y="-5">11</text>
			<text x="0" y="5">..</text>
		</g>
	</g>
</svg>